<?xml version="1.0" standalone="no"?>
<!DOCTYPE svg PUBLIC "-//W3C//DTD SVG 20010904//EN"
 "http://www.w3.org/TR/2001/REC-SVG-20010904/DTD/svg10.dtd">
<svg version="1.0" xmlns="http://www.w3.org/2000/svg"
 width="700.000000pt" height="700.000000pt" viewBox="0 0 700.000000 700.000000"
 preserveAspectRatio="xMidYMid meet">
<metadata>
Created by potrace 1.14, written by Peter Selinger 2001-2017
</metadata>
<g transform="translate(0.000000,700.000000) scale(0.100000,-0.100000)"
fill="#000000" stroke="none">
<path d="M1760 5832 c-6 -2 -10 -109 -10 -293 l0 -289 -290 0 c-225 0 -290 -3
-291 -12 0 -7 -2 -139 -2 -292 l-2 -279 -288 0 c-284 0 -287 0 -292 -21 -2
-12 -3 -799 -2 -1750 l2 -1730 1747 0 c1157 -1 1749 2 1751 9 1 6 2 137 2 293
l-1 282 292 0 291 0 0 283 c0 156 2 288 5 293 4 5 241 9 580 8 315 0 575 2
578 7 4 5 5 521 1 565 -1 7 -261 10 -858 9 -472 0 -865 1 -874 3 -14 3 -15 37
-15 293 l0 289 1166 0 1166 0 0 875 0 875 -291 0 -292 0 1 286 c1 157 -1 289
-4 292 -5 7 -4051 10 -4070 4z m1156 -1456 l-1 -291 -291 -1 -290 0 -1 285 c0
157 4 289 9 292 5 3 136 5 291 5 l283 0 0 -290z"/>
</g>
</svg>
